<svg width="308" height="361" viewBox="0 0 308 361" fill="none" xmlns="http://www.w3.org/2000/svg">
<path d="M190.591 5.58022C195.382 6.94214 200.277 6.6408 205.213 6.56094C206.187 6.55267 207.161 6.54441 208.164 6.53589C210.551 6.51443 212.938 6.48437 215.325 6.4464C215.325 6.14403 215.325 5.84165 215.325 5.53011C217.515 5.48039 219.704 5.44417 221.894 5.41557C222.51 5.40021 223.126 5.38486 223.76 5.36904C227.501 5.33245 230.224 5.78658 233.606 7.3627C234.398 7.4572 235.189 7.55169 236.005 7.64905C248.362 10.1724 260.493 18.8919 267.657 29.1633C274.763 40.1928 278.116 51.3102 279.374 64.3158C279.991 69.6225 281.791 73.7187 284.393 78.3294C285.667 80.5954 286.575 82.8355 287.535 85.2482C289.141 88.3568 290.773 91.4493 292.42 94.5364C295.825 101.798 296.055 109.823 296.244 117.712C296.308 119.729 296.373 121.745 296.438 123.761C296.53 126.883 296.618 130.004 296.702 133.126C297.039 145.141 297.719 156.828 299.766 168.682C300.211 171.524 300.37 174.025 300.332 176.878C300.634 177.181 300.935 177.483 301.246 177.794C301.763 179.846 302.231 181.91 302.674 183.979C303.044 185.673 303.044 185.673 303.42 187.401C303.988 190.623 303.988 190.623 303.956 193.099C303.993 195.533 304.656 196.76 305.816 198.869C308.028 205.782 308.964 213.49 306.502 220.402C304.925 222.66 303.554 223.977 301.246 225.442C300.944 225.744 300.643 226.047 300.332 226.358C299.616 226.925 298.899 227.492 298.161 228.076C297.369 228.719 296.577 229.361 295.762 230.024C295.011 230.553 295.011 230.553 294.244 231.094C292.333 233.714 292.805 236.483 292.962 239.587C293.232 246.687 293.232 246.687 291.191 250.182C291.191 251.089 291.191 251.996 291.191 252.931C289.992 255.394 289.992 255.394 288.449 257.512C287.544 257.512 286.639 257.512 285.707 257.512C286.009 258.117 286.31 258.722 286.621 259.345C286.018 259.95 285.415 260.555 284.793 261.178C284.793 262.039 284.824 262.901 284.857 263.762C284.969 268.503 284.303 272.178 282.965 276.755C282.665 279.423 282.454 282.086 282.276 284.765C282.051 286.834 282.051 286.834 281.137 287.75C281.212 288.809 281.288 289.867 281.365 290.957C281.422 297.319 277.771 302.242 273.653 306.821C265.69 314.349 255.156 314.489 244.86 314.495C243.824 314.506 242.788 314.517 241.72 314.529C236.154 314.539 230.994 314.222 225.569 312.941C221.889 312.119 218.167 311.821 214.411 311.574C213.656 311.525 212.902 311.475 212.125 311.424C200.59 311.026 192.128 315.695 183.847 323.429C178.988 328.461 175.382 334.281 171.615 340.143C165.509 349.59 159.858 357.099 148.598 360.138C145.01 360.533 141.448 360.545 137.84 360.535C136.309 360.543 136.309 360.543 134.747 360.55C132.595 360.556 130.443 360.555 128.292 360.547C125.024 360.539 121.758 360.565 118.49 360.594C116.39 360.596 114.29 360.595 112.19 360.593C111.225 360.603 110.26 360.613 109.266 360.624C99.345 360.532 90.4169 357.444 82.7863 350.975C74.4701 342.173 71.746 331.04 71.7033 319.134C71.741 318.151 71.7787 317.168 71.8176 316.156C71.9021 314.816 71.9021 314.816 69.9895 312.49C69.7255 311.564 69.4616 310.638 69.1897 309.684C68.4606 306.939 68.4606 306.939 66.5189 306.023C65.5221 305.596 65.5221 305.596 64.5051 305.16C63.8571 304.858 63.209 304.555 62.5413 304.244C59.4431 302.849 56.4381 301.545 53.1937 300.521C50.7943 299.662 50.7943 299.662 49.5446 298.395C47.7611 296.624 45.8955 295.571 43.7103 294.336C32.0225 287.405 25.2137 277.603 20.6304 264.843C20.6304 263.936 20.6304 263.029 20.6304 262.094C19.7255 261.792 18.8205 261.489 17.8882 261.178C16.2292 256.003 15.6075 250.822 15.0889 245.429C14.6634 241.16 14.2366 236.97 13.3179 232.772C13.3179 232.47 13.3179 232.168 13.3179 231.856C12.7724 231.188 12.2268 230.519 11.6648 229.83C-0.365749 214.481 -1.03064 193.398 0.720623 174.754C2.84797 159.594 9.95984 145.55 19.7543 134.004C26.9136 125.352 28.0554 115.884 29.4282 105.063C29.7056 102.924 29.9866 100.785 30.276 98.6476C30.4545 97.3259 30.6258 96.0032 30.7889 94.6795C31.2109 91.5135 31.6238 89.7925 33.4272 87.0808C33.4272 86.1736 33.4272 85.2665 33.4272 84.3319C34.3321 82.9712 34.3321 82.9712 35.2553 81.583C35.5251 80.7313 35.795 79.8797 36.073 79.0023C40.655 65.7744 52.1364 56.3462 64.0481 49.9134C69.0562 47.4831 74.3456 45.8428 79.6603 44.2256C84.7347 42.6352 88.7926 40.7425 92.6124 36.9134C93.755 35.768 93.755 35.768 95.5831 35.768C95.8237 35.2308 96.0643 34.6936 96.3121 34.1401C104.017 19.8574 122.355 8.3567 137.251 3.55791C155.804 -1.92016 172.456 -0.938425 190.591 5.58022ZM111.143 37.7294C97.8485 51.5747 97.8485 51.5747 88.2706 55.0103C86.866 55.5228 85.4616 56.0359 84.0574 56.5494C81.768 57.3832 79.4782 58.2154 77.1852 59.0392C71.6045 61.0743 66.5767 63.3852 61.763 66.9222C61.122 67.3887 60.481 67.8553 59.8206 68.336C51.1829 75.2401 46.0085 85.8962 42.5678 96.2438C42.4015 97.9492 42.2761 99.6588 42.175 101.369C42.1078 102.39 42.0407 103.41 41.9715 104.462C41.8376 106.59 41.7089 108.718 41.5859 110.847C41.0129 119.336 40.0614 127.861 35.1982 135.072C34.6408 135.905 34.0835 136.737 33.5093 137.595C31.7975 139.953 30.0221 142.243 28.2091 144.523C21.6359 152.807 16.1332 161.708 14.232 172.297C13.6287 171.994 13.0254 171.692 12.4039 171.38C11.6343 174.06 11.3818 176.427 11.4005 179.212C11.4035 179.985 11.4064 180.759 11.4095 181.556C11.421 182.756 11.421 182.756 11.4327 183.979C11.4368 184.793 11.4409 185.607 11.4452 186.446C11.4559 188.449 11.4709 190.452 11.4898 192.455C12.0931 192.455 12.6964 192.455 13.3179 192.455C14.0632 195.35 14.2141 197.86 14.0606 200.816C14.0179 209.513 18.7147 217.311 22.6245 224.839C26.0035 231.384 27.3542 237.196 27.9428 244.512C28.6392 253.051 29.534 260.662 33.7128 268.279C34.2372 269.257 34.7615 270.235 35.3017 271.243C41.7318 281.215 52.664 287.055 63.7053 290.442C72.4271 293.267 77.4971 298.045 81.8722 306.076C83.7776 309.935 83.9056 313.191 83.986 317.473C84.3788 326.38 85.9109 335.642 92.7267 341.984C99.7066 347.215 106.679 348.363 115.253 348.444C116 348.452 116.747 348.459 117.517 348.467C119.094 348.48 120.672 348.489 122.249 348.497C123.853 348.507 125.456 348.526 127.059 348.553C129.389 348.592 131.718 348.607 134.048 348.616C134.756 348.632 135.464 348.648 136.193 348.665C142.167 348.641 146.589 346.725 151.369 343.186C154.319 340.166 156.756 337.004 159.067 333.469C159.708 332.494 160.349 331.519 161.01 330.514C161.538 329.709 161.538 329.709 162.078 328.887C163.753 326.348 165.45 323.825 167.145 321.3C177.564 305.752 187.802 290.384 195.943 273.488C200.87 263.501 205.388 254.367 216.239 250.182C219.437 249.113 222.181 249.064 225.551 248.922C232.263 248.539 237.381 247.938 242.575 243.31C243.235 242.554 243.895 241.798 244.574 241.019C245.258 240.445 245.258 240.445 245.956 239.859C247.872 237.621 248.357 235.371 249.145 232.543C253.402 218.051 253.402 218.051 261.199 213.759C263.896 212.693 266.369 212.41 269.254 212.213C273.893 211.845 276.467 210.818 280.223 208.032C282.507 205.139 284.346 202.57 284.793 198.869C284.925 197.887 285.057 196.904 285.193 195.891C284.544 190.316 281.333 186.834 277.138 183.292C273.781 182.01 270.913 181.601 267.426 182.376C264.478 183.772 262.233 185.382 260.113 187.874C259.434 190.644 259.174 192.446 259.199 195.204C259.167 201.392 257.974 204.635 253.704 209.181C251.964 210.713 250.314 211.689 248.288 212.786C246.608 213.758 246.608 213.758 245.489 215.363C245.108 218.425 245.208 221.302 245.356 224.383C245.522 227.998 245.23 230.411 243.66 233.689C239.963 237.659 236.656 240.795 231.067 241.205C230.114 241.219 229.161 241.234 228.179 241.248C227.228 241.272 226.277 241.295 225.297 241.32C222.302 240.981 221.12 240.356 218.981 238.27C217.838 235.808 217.838 235.808 217.153 233.689C212.139 234.121 209.033 235.971 204.984 238.728C204.406 239.11 203.828 239.491 203.233 239.884C200.46 241.653 200.46 241.653 197.958 243.768C197.86 245.313 197.788 246.86 197.729 248.407C197.157 255.209 194.51 258.893 190.074 263.869C185.78 266.5 181.932 267.067 176.934 266.675C173.798 265.585 171.162 264.265 169.622 261.178C169.018 261.178 168.415 261.178 167.794 261.178C165.684 253.776 165.323 248.449 167.794 241.019C167.429 237.482 166.523 235.598 164.12 233.016C163.562 232.415 163.004 231.813 162.429 231.194C161.843 230.581 161.256 229.968 160.653 229.336C160.077 228.709 159.501 228.082 158.908 227.436C155.363 223.351 155.363 223.351 150.427 221.777C144.163 225.05 138.393 231.293 134.888 237.354C133.672 241.42 133.361 245.206 133.345 249.438C133.328 250.422 133.311 251.406 133.294 252.42C133.454 255.358 133.736 257.551 134.888 260.261C137.086 262.191 139.178 263.414 141.815 264.663C145.737 266.606 147.618 269.571 149.798 273.319C151.401 279.744 150.964 285.608 147.684 291.416C144.46 296.126 141.434 299.005 135.802 300.579C129.601 301.418 124.609 300.908 119.302 297.45C115.032 293.967 113.255 290.952 112.518 285.427C112.234 278.129 112.8 272.419 117.52 266.675C119.764 264.539 121.682 263.209 124.455 261.862C126.846 260.453 126.846 260.453 127.441 257.94C128.893 243.37 128.893 243.37 123.237 230.442C119.239 226.204 114.799 222.594 110.208 219.028C106.416 215.924 102.969 212.833 99.9213 208.981C95.2986 203.281 91.3562 198.775 83.7825 197.821C74.0761 197.274 74.0761 197.274 65.3692 200.831C59.2977 209.777 61.3324 222.543 62.677 232.772C62.0737 232.772 61.4705 232.772 60.8489 232.772C60.5473 233.68 60.2456 234.587 59.9348 235.521C59.0299 233.405 58.125 231.288 57.1927 229.107C56.891 229.107 56.5894 229.107 56.2786 229.107C56.1718 224.984 56.1072 220.861 56.0501 216.737C56.0042 214.994 56.0042 214.994 55.9573 213.215C55.8869 206.439 56.1742 201.83 59.9348 196.12C62.7989 193.393 65.9776 190.675 70.0729 190.577C70.7514 190.647 71.4298 190.717 72.1289 190.789C80.8618 191.309 87.1882 190.828 93.961 184.886C97.4858 181.444 100.804 177.851 104.095 174.187C105.501 172.701 106.91 171.22 108.325 169.743C110.871 167.054 113.404 164.355 115.886 161.606C116.628 160.786 116.628 160.786 117.384 159.949C118.618 158.6 118.618 158.6 118.435 156.72C118.962 156.512 119.49 156.304 120.034 156.09C122.807 154.468 124.032 153.056 125.747 150.305C126.185 147.445 126.094 144.658 125.975 141.772C125.959 141.006 125.942 140.24 125.926 139.451C125.883 137.571 125.817 135.691 125.747 133.812C120.921 133.51 116.095 133.207 111.122 132.896C111.099 127.743 111.083 122.59 111.072 117.438C111.067 115.685 111.061 113.932 111.053 112.18C111.042 109.66 111.037 107.139 111.033 104.619C111.028 103.837 111.023 103.054 111.018 102.247C111.018 101.514 111.018 100.78 111.018 100.024C111.016 99.3814 111.014 98.7384 111.012 98.076C111.129 96.1236 111.433 94.4386 112.036 92.5786C117.127 88.7003 126.14 89.6374 132.26 89.6006C133.053 89.5817 133.846 89.5628 134.663 89.5433C139.464 89.514 142.54 90.0683 146.77 92.5786C147.374 92.5786 147.977 92.5786 148.598 92.5786C149.226 93.7912 149.83 95.0155 150.427 96.2438C150.743 96.8627 151.06 97.4816 151.387 98.1193C152.827 102.609 152.549 107.262 152.531 111.948C152.587 116.628 152.587 116.628 155.15 120.39C156.005 120.888 156.859 121.387 157.739 121.9C158.625 122.492 159.511 123.084 160.424 123.693C161.348 124.254 162.272 124.815 163.223 125.394C164.147 125.966 165.071 126.539 166.023 127.13C169.035 128.458 170.212 128.438 173.278 127.398C173.881 127.096 174.485 126.793 175.106 126.482C176.875 126.393 178.648 126.363 180.419 126.367C181.842 126.364 181.842 126.364 183.293 126.36C186.075 126.482 186.075 126.482 188.239 127.266C192.36 127.492 195.062 124.71 198.243 122.301C198.902 121.819 199.562 121.336 200.241 120.839C201.568 119.864 202.888 118.878 204.2 117.882C205.539 116.884 206.902 115.917 208.286 114.982C212.209 112.413 212.209 112.413 214.282 108.388C214.249 107.574 214.216 106.761 214.182 105.922C214.291 100.902 215.094 98.4679 218.067 94.4112C221.821 90.8356 224.246 90.027 229.264 89.5433C234.673 89.9951 238.496 91.9051 242.232 95.8429C245.108 100.341 245.117 104.801 244.574 109.988C243.358 114.103 241.242 116.515 237.548 118.636C233.568 120.373 229.661 120.761 225.379 120.068C224.809 119.758 224.239 119.449 223.651 119.13C220.94 117.872 219.204 117.844 216.239 118.235C214.121 119.583 212.36 120.864 210.469 122.473C209.431 123.319 208.392 124.162 207.352 125.003C206.846 125.415 206.34 125.826 205.819 126.25C203.215 128.292 200.418 130.02 197.6 131.747C195.848 132.897 195.848 132.897 195.215 135.645C195.199 139.537 195.653 142.996 197.043 146.64C199.786 149.138 202.673 150.152 206.184 151.222C206.969 151.506 207.753 151.791 208.562 152.084C211.985 153.099 214.199 153.628 217.46 151.966C219.295 150.585 220.958 149.12 222.637 147.557C225.581 146.081 228.585 146.222 231.778 146.64C235.426 148.433 237.212 150.135 239.126 153.606C240.602 155.712 241.369 156.58 243.852 157.329C246.314 157.554 248.673 157.561 251.144 157.464C252.007 157.444 252.87 157.424 253.759 157.403C260.451 157.087 265.132 155.825 270.168 151.222C271.142 150.424 271.142 150.424 272.135 149.611C280.008 142.586 284.114 132.687 284.993 122.278C285.63 107.624 284.217 97.2929 275.397 85.4316C269.367 77.2547 267.152 69.1155 265.676 59.2079C263.744 46.5005 258.395 34.7948 248.231 26.605C240.082 21.1311 232.774 20.1337 223.215 19.8688C222.52 19.8475 221.825 19.8263 221.108 19.8045C219.653 19.7612 218.199 19.7197 216.744 19.68C214.511 19.6178 212.279 19.5467 210.047 19.475C208.629 19.4339 207.21 19.3933 205.791 19.3533C204.79 19.3205 204.79 19.3205 203.769 19.287C200.293 19.132 200.293 19.132 197.043 20.1909C194.932 19.7254 192.84 19.1759 190.759 18.5874C188.99 18.0913 187.221 17.5958 185.45 17.1091C183.903 16.6828 182.359 16.2445 180.817 15.7991C174.174 13.9785 167.989 13.2756 161.11 13.3187C159.614 13.3275 159.614 13.3275 158.088 13.3365C138.628 13.7764 124.216 24.0419 111.143 37.7294ZM119.349 99.909C118.156 102.3 118.331 104.057 118.345 106.731C118.348 107.619 118.35 108.508 118.352 109.423C118.36 110.555 118.369 111.686 118.377 112.852C118.396 116.442 118.415 120.033 118.435 123.733C126.88 123.733 135.326 123.733 144.028 123.733C144.047 119.972 144.066 116.211 144.085 112.336C144.094 111.149 144.102 109.961 144.11 108.738C144.113 107.81 144.115 106.882 144.117 105.926C144.122 104.971 144.127 104.016 144.132 103.032C144.278 100.87 144.278 100.87 143.114 99.909C141.353 99.8288 139.589 99.8109 137.826 99.8195C136.757 99.8224 135.688 99.8254 134.586 99.8284C132.897 99.8399 132.897 99.8399 131.174 99.8517C130.045 99.8558 128.915 99.86 127.752 99.8642C124.951 99.8751 122.15 99.8902 119.349 99.909ZM151.341 129.231C151.192 129.821 151.044 130.412 150.891 131.02C149.512 132.896 149.512 132.896 146.135 133.454C144.786 133.515 143.436 133.557 142.086 133.583C141.052 133.624 141.052 133.624 139.997 133.665C138.294 133.73 136.591 133.773 134.888 133.812C134.838 135.683 134.803 137.553 134.773 139.424C134.752 140.466 134.731 141.508 134.709 142.581C135.113 149.695 137.904 152.963 142.943 157.579C143.506 158.13 144.07 158.681 144.651 159.248C147.804 162.27 147.804 162.27 151.883 163.33C154.875 161.817 157.011 159.707 159.281 157.292C159.725 156.839 160.169 156.385 160.626 155.918C165.367 151.014 166.64 147.933 166.558 141.16C165.832 137.77 164.843 136.775 162.138 134.671C160.694 133.738 159.229 132.837 157.739 131.979C156.853 131.394 155.967 130.808 155.054 130.204C153.251 129.091 153.251 129.091 151.341 129.231ZM190.131 154.887C186.442 157.125 183.074 156.7 178.934 156.433C173.527 156.162 170.316 156.824 166.194 160.557C164.132 162.684 164.132 162.684 162.309 164.966C161.607 165.719 160.905 166.471 160.181 167.246C158.459 169.402 158.459 169.402 158.582 171.813C159.896 174.902 161.949 176.875 164.366 179.112C165.238 179.942 166.11 180.772 167.008 181.628C167.453 182.043 167.898 182.458 168.356 182.886C169.622 184.209 169.622 184.209 171.603 187.247C174.979 190.454 177.047 190.328 181.563 190.279C182.468 190.241 183.372 190.203 184.304 190.164C185.666 190.15 185.666 190.15 187.055 190.136C192.775 190.069 192.775 190.069 197.958 187.874C200.932 184.39 203.513 180.599 206.184 176.878C206.83 176.051 207.475 175.224 208.141 174.373C208.72 173.612 209.3 172.851 209.897 172.068C210.417 171.401 210.937 170.735 211.472 170.049C213.062 166.707 212.764 164.065 212.582 160.385C209.403 159.161 206.223 157.94 203.042 156.72C202.134 156.37 201.226 156.02 200.291 155.66C199.428 155.329 198.565 154.999 197.675 154.658C196.876 154.351 196.077 154.044 195.253 153.727C192.593 152.722 192.593 152.722 190.131 154.887ZM125.022 164.777C124.42 165.363 123.817 165.949 123.196 166.553C122.53 167.239 121.863 167.925 121.177 168.631C120.379 169.42 119.582 170.209 118.761 171.021C116.097 173.658 113.465 176.325 110.836 178.997C109.053 180.81 107.266 182.619 105.477 184.427C104.305 185.618 104.305 185.618 103.109 186.833C101.067 188.79 101.067 188.79 98.3253 190.623C97.883 193.35 97.9647 194.679 99.5398 196.973C100.108 197.532 100.676 198.092 101.262 198.668C101.903 199.31 102.543 199.952 103.203 200.613C103.903 201.291 104.603 201.969 105.324 202.667C106.034 203.372 106.744 204.078 107.475 204.804C109.747 207.056 112.034 209.291 114.321 211.526C115.864 213.049 117.405 214.573 118.945 216.098C122.724 219.836 126.516 223.56 130.317 227.275C133.492 226.063 135.618 225.054 137.972 222.579C138.52 222.007 139.068 221.435 139.633 220.846C141.232 219.087 142.776 217.291 144.314 215.477C146.758 212.621 149.364 210.156 152.198 207.689C156.636 203.745 161.249 199.539 164.137 194.288C164.092 189.292 160.685 186.57 157.393 183.246C156.803 182.642 156.213 182.038 155.605 181.416C154.355 180.145 153.1 178.878 151.84 177.616C149.922 175.685 148.035 173.727 146.147 171.765C144.927 170.531 143.706 169.3 142.482 168.069C141.923 167.483 141.364 166.896 140.788 166.291C137.963 163.518 135.993 161.852 131.945 161.692C128.572 162.205 127.364 162.429 125.022 164.777ZM243.66 164.966C244.356 169.618 245.941 171.242 249.488 174.358C250.381 175.157 251.274 175.955 252.194 176.778C254.516 178.846 254.516 178.846 257.371 179.627C259.044 178.526 259.044 178.526 260.799 176.993C266.448 172.936 272.602 173.231 279.309 173.213C276.892 170.586 274.825 168.925 271.539 167.543C270.851 167.247 270.163 166.95 269.454 166.645C265.883 165.303 262.834 164.854 259.014 164.877C258.118 164.88 257.223 164.883 256.3 164.886C255.372 164.893 254.443 164.901 253.487 164.909C252.544 164.913 251.601 164.917 250.63 164.921C248.307 164.932 245.984 164.947 243.66 164.966ZM235.434 174.129C233.742 177.746 233.371 180.629 233.363 184.609C233.361 185.732 233.358 186.854 233.356 188.01C233.363 189.174 233.37 190.339 233.377 191.539C233.37 192.704 233.363 193.868 233.356 195.068C233.358 196.19 233.361 197.312 233.363 198.468C233.365 199.49 233.367 200.512 233.369 201.565C233.697 205.446 234.502 208.014 237.262 210.781C239.852 210.855 241.37 210.232 243.393 208.626C248.774 203.478 252.992 198.587 253.372 190.909C253.191 187.607 253.006 186.335 251.087 183.579C249.673 182.53 249.673 182.53 248.231 181.46C247.501 180.834 246.772 180.208 246.021 179.563C241.38 175.259 241.38 175.259 235.434 174.129ZM218.067 175.046C216.314 177.087 214.562 179.13 212.811 181.173C212.318 181.747 211.826 182.32 211.318 182.911C210.351 184.04 209.39 185.175 208.435 186.314C207.274 187.669 206.042 188.961 204.799 190.24C203.132 192.414 203.132 192.414 203.902 195.133C205.368 198.156 206.993 200.893 208.869 203.68C209.499 204.63 210.13 205.579 210.779 206.558C212.499 209.111 212.499 209.111 215.325 210.781C218.412 210.482 220.481 209.32 222.637 207.116C222.963 204.627 223.064 202.515 222.994 200.033C222.989 199.345 222.984 198.657 222.978 197.949C222.958 195.754 222.912 193.561 222.866 191.367C222.847 189.879 222.831 188.39 222.816 186.902C222.775 183.255 222.712 179.609 222.637 175.962C221.129 175.659 219.621 175.357 218.067 175.046ZM162.309 209.865C161.242 210.822 161.242 210.822 160.153 211.798C159.41 212.655 159.41 212.655 158.653 213.53C158.951 217.201 160.052 219.075 162.559 221.702C163.162 222.34 163.766 222.978 164.387 223.636C165.021 224.289 165.655 224.941 166.308 225.614C166.935 226.277 167.562 226.94 168.208 227.624C173.046 232.696 175.808 234.87 182.903 235.139C194.598 235.306 194.598 235.306 204.245 229.236C204.885 228.589 205.525 227.942 206.184 227.275C207.022 226.703 207.86 226.131 208.723 225.542C210.986 223.763 210.986 223.763 211.268 220.993C210.324 215.7 206.775 211.842 203.585 207.671C202.528 206.2 202.528 206.2 201.125 203.594C199.355 200.727 198.216 199.549 195.215 197.953C180.213 194.474 170.72 197.309 162.309 209.865ZM123.005 274.006C120.933 276.775 120.746 279.708 120.816 283.137C121.463 286.483 123.348 288.152 125.747 290.499C128.914 292.087 132.338 291.848 135.802 291.416C138.654 289.773 139.96 288.444 141.629 285.631C142.402 282.298 142.17 280.062 141.286 276.755C138.079 272.845 135.381 270.638 130.374 269.997C126.858 270.429 125.488 271.516 123.005 274.006Z" fill="currentColor"/>
</svg>
